<svg width="30" height="36" viewBox="0 0 30 36" fill="none" xmlns="http://www.w3.org/2000/svg">
<path d="M0 6.74997C0 5.85934 0.716518 5.14282 1.60714 5.14282H28.3929C29.2835 5.14282 30 5.85934 30 6.74997C30 7.64059 29.2835 8.35711 28.3929 8.35711H1.60714C0.716518 8.35711 0 7.64059 0 6.74997ZM0 17.4643C0 16.5736 0.716518 15.8571 1.60714 15.8571H28.3929C29.2835 15.8571 30 16.5736 30 17.4643C30 18.3549 29.2835 19.0714 28.3929 19.0714H1.60714C0.716518 19.0714 0 18.3549 0 17.4643ZM30 28.1785C30 29.0692 29.2835 29.7857 28.3929 29.7857H1.60714C0.716518 29.7857 0 29.0692 0 28.1785C0 27.2879 0.716518 26.5714 1.60714 26.5714H28.3929C29.2835 26.5714 30 27.2879 30 28.1785Z" fill="black"/>
</svg>
